<svg width="23" height="22" viewBox="0 0 23 22" fill="none" xmlns="http://www.w3.org/2000/svg">
<path d="M20.7394 0H2.58746C1.5956 0 0.729004 0.71367 0.729004 1.69387V19.8861C0.729004 20.8717 1.5956 21.7499 2.58746 21.7499H20.7341C21.7313 21.7499 22.4789 20.8659 22.4789 19.8861V1.69387C22.4848 0.71367 21.7313 0 20.7394 0ZM7.471 18.1296H4.35513V8.44169H7.471V18.1296ZM6.02084 6.96872H5.99851C5.00131 6.96872 4.35561 6.2264 4.35561 5.29718C4.35561 4.35096 5.0183 3.62612 6.03783 3.62612C7.05736 3.62612 7.68121 4.34562 7.70355 5.29718C7.70306 6.2264 7.05736 6.96872 6.02084 6.96872ZM18.8586 18.1296H15.7428V12.8325C15.7428 11.5634 15.2893 10.6963 14.162 10.6963C13.3008 10.6963 12.791 11.2789 12.5643 11.8464C12.4793 12.0503 12.4565 12.328 12.4565 12.6116V18.1296H9.34062V8.44169H12.4565V9.7899C12.9099 9.1442 13.6183 8.21497 15.2665 8.21497C17.3119 8.21497 18.8591 9.56317 18.8591 12.4698L18.8586 18.1296Z" fill="#FF8C92"/>
</svg>
