<svg width="23" height="22" viewBox="0 0 23 22" fill="none" xmlns="http://www.w3.org/2000/svg">
<path d="M15.766 1.95049C16.9948 1.95402 18.1723 2.4253 19.0411 3.26142C19.91 4.09754 20.3998 5.23054 20.4035 6.41299V15.337C20.3998 16.5195 19.91 17.6525 19.0411 18.4886C18.1723 19.3247 16.9948 19.796 15.766 19.7995H6.49213C5.26333 19.796 4.08591 19.3247 3.21701 18.4886C2.34812 17.6525 1.85835 16.5195 1.85468 15.337V6.41299C1.85835 5.23054 2.34812 4.09754 3.21701 3.26142C4.08591 2.4253 5.26333 1.95402 6.49213 1.95049H15.766ZM15.766 0.165771H6.49213C2.92138 0.165771 0 2.97695 0 6.41299V15.337C0 18.7731 2.92138 21.5842 6.49213 21.5842H15.766C19.3368 21.5842 22.2582 18.7731 22.2582 15.337V6.41299C22.2582 2.97695 19.3368 0.165771 15.766 0.165771Z" fill="#FF8C92"/>
<path d="M17.1571 6.41339C16.8819 6.41339 16.613 6.33488 16.3842 6.18779C16.1554 6.0407 15.9771 5.83163 15.8718 5.58702C15.7665 5.34241 15.739 5.07325 15.7927 4.81358C15.8464 4.55391 15.9788 4.31538 16.1734 4.12817C16.368 3.94095 16.6158 3.81346 16.8857 3.76181C17.1555 3.71015 17.4352 3.73666 17.6894 3.83798C17.9436 3.9393 18.1609 4.11088 18.3138 4.33102C18.4666 4.55116 18.5482 4.80998 18.5482 5.07474C18.5486 5.25064 18.5129 5.42488 18.4431 5.58747C18.3733 5.75005 18.2709 5.89777 18.1416 6.02215C18.0124 6.14654 17.8589 6.24513 17.6899 6.31226C17.5209 6.3794 17.3399 6.41377 17.1571 6.41339ZM11.129 7.30551C11.8627 7.30551 12.58 7.51488 13.1901 7.90715C13.8002 8.29942 14.2757 8.85696 14.5565 9.50927C14.8372 10.1616 14.9107 10.8794 14.7676 11.5719C14.6244 12.2644 14.2711 12.9005 13.7523 13.3997C13.2334 13.899 12.5724 14.239 11.8528 14.3767C11.1331 14.5145 10.3872 14.4438 9.70929 14.1736C9.03141 13.9034 8.452 13.4458 8.04436 12.8587C7.63672 12.2717 7.41914 11.5815 7.41914 10.8754C7.42019 9.92893 7.81138 9.0215 8.50689 8.35223C9.2024 7.68296 10.1454 7.30652 11.129 7.30551ZM11.129 5.5208C10.0284 5.5208 8.95259 5.83484 8.0375 6.42321C7.12242 7.01159 6.4092 7.84786 5.98803 8.82629C5.56686 9.80472 5.45667 10.8814 5.67138 11.9201C5.88609 12.9587 6.41606 13.9128 7.19427 14.6617C7.97249 15.4106 8.96399 15.9205 10.0434 16.1271C11.1228 16.3338 12.2417 16.2277 13.2585 15.8224C14.2752 15.4172 15.1443 14.7308 15.7557 13.8503C16.3672 12.9697 16.6935 11.9345 16.6935 10.8754C16.6935 9.45528 16.1073 8.09332 15.0637 7.08913C14.0202 6.08494 12.6048 5.5208 11.129 5.5208Z" fill="#FF8C92"/>
</svg>
