<svg width="22" height="18" viewBox="0 0 22 18" fill="none" xmlns="http://www.w3.org/2000/svg">
<path d="M21.7294 2.32656C20.924 2.67626 20.0718 2.90666 19.1998 3.01046C20.1162 2.47423 20.8054 1.62235 21.138 0.614568C20.2716 1.12083 19.3253 1.47605 18.3396 1.665C17.9246 1.23032 17.4254 0.88451 16.8724 0.648604C16.3194 0.412699 15.7242 0.291622 15.123 0.292732C12.6887 0.292732 10.7187 2.23269 10.7187 4.6241C10.717 4.95674 10.7551 5.28839 10.8323 5.61196C9.08679 5.53019 7.37753 5.08522 5.81393 4.30551C4.25032 3.52581 2.8668 2.42854 1.75188 1.08391C1.36074 1.74283 1.15388 2.49464 1.15293 3.26077C1.15293 4.76267 1.93707 6.09025 3.12111 6.86801C2.4196 6.85138 1.73246 6.66584 1.11804 6.32715V6.38079C1.11804 8.48166 2.6389 10.2294 4.65182 10.6272C4.27329 10.7281 3.88323 10.7792 3.49148 10.7792C3.21351 10.7797 2.93618 10.7527 2.66351 10.6988C3.2231 12.4197 4.85177 13.6713 6.78103 13.707C5.21336 14.9143 3.28868 15.5668 1.30949 15.562C0.958176 15.5615 0.60719 15.5406 0.258301 15.4995C2.27174 16.7842 4.6122 17.4638 7.00111 17.4573C15.1136 17.4573 19.5456 10.8552 19.5456 5.12921C19.5456 4.94147 19.5407 4.75373 19.5317 4.57047C20.3919 3.959 21.1361 3.19914 21.7294 2.32656Z" fill="#FF8C92"/>
</svg>
