<svg width="27" height="20" viewBox="0 0 27 20" fill="none" xmlns="http://www.w3.org/2000/svg">
<path d="M26.3119 4.57022C26.3119 2.34372 24.6309 0.552625 22.5537 0.552625C19.74 0.424478 16.8705 0.375 13.938 0.375H13.0239C10.0985 0.375 7.22391 0.424478 4.41028 0.55312C2.33814 0.55312 0.65707 2.35411 0.65707 4.58062C0.5301 6.34153 0.476265 8.10294 0.479313 9.86435C0.474234 11.6258 0.531793 13.3888 0.651991 15.1535C0.651991 17.38 2.33306 19.186 4.4052 19.186C7.36104 19.3196 10.3931 19.3789 13.4759 19.374C16.5638 19.3839 19.5873 19.3212 22.5465 19.186C24.6238 19.186 26.3048 17.38 26.3048 15.1535C26.4267 13.3872 26.4826 11.6258 26.4775 9.8594C26.489 8.09799 26.4338 6.33493 26.3119 4.57022ZM10.9924 14.7181V4.99573L18.3566 9.85446L10.9924 14.7181Z" fill="#FF8C92"/>
</svg>
