<svg width="25" height="39" viewBox="0 0 25 39" fill="none" xmlns="http://www.w3.org/2000/svg">
<path d="M4.16666 39L20.8333 39C21.937 38.9954 22.9941 38.5537 23.7746 37.7711C24.555 36.9884 24.9954 35.9282 25 34.8214L25 4.17858C24.9954 3.07176 24.555 2.01159 23.7746 1.22894C22.9942 0.4463 21.937 0.00458881 20.8333 3.45044e-06L4.16667 1.99339e-06C3.06301 0.00458716 2.00585 0.446298 1.22544 1.22894C0.445024 2.01158 0.00456933 3.07176 -7.70512e-07 4.17858L-3.4494e-06 34.8214C0.00456646 35.9282 0.445021 36.9884 1.22543 37.7711C2.00585 38.5537 3.063 38.9954 4.16666 39ZM12.5 29.25C12.912 29.25 13.3148 29.3725 13.6574 29.6021C14 29.8317 14.2671 30.158 14.4247 30.5398C14.5824 30.9215 14.6237 31.3416 14.5433 31.7469C14.4629 32.1522 14.2645 32.5244 13.9731 32.8166C13.6818 33.1088 13.3106 33.3078 12.9064 33.3884C12.5023 33.469 12.0834 33.4277 11.7027 33.2695C11.3221 33.1114 10.9967 32.8436 10.7678 32.5C10.5389 32.1564 10.4167 31.7525 10.4167 31.3393C10.4167 30.7852 10.6362 30.2538 11.0269 29.8619C11.4176 29.4701 11.9475 29.25 12.5 29.25Z" fill="#FF8C92"/>
</svg>
