<svg width="40" height="30" viewBox="0 0 40 30" fill="none" xmlns="http://www.w3.org/2000/svg">
<path d="M38.5714 21.4286H37.1429V4.28571C37.1382 3.15052 36.6851 2.06316 35.8824 1.26045C35.0797 0.45774 33.9923 0.00470066 32.8571 0H7.14286C6.00766 0.00470066 4.9203 0.45774 4.11759 1.26045C3.31488 2.06316 2.86184 3.15052 2.85714 4.28571V21.4286H1.42857C1.04969 21.4286 0.686328 21.5791 0.418419 21.847C0.15051 22.1149 0 22.4783 0 22.8571V25.7143C0.00470066 26.8495 0.457739 27.9368 1.26045 28.7396C2.06316 29.5423 3.15052 29.9953 4.28571 30H35.7143C36.8495 29.9953 37.9368 29.5423 38.7396 28.7396C39.5423 27.9368 39.9953 26.8495 40 25.7143V22.8571C40 22.4783 39.8495 22.1149 39.5816 21.847C39.3137 21.5791 38.9503 21.4286 38.5714 21.4286ZM17.1429 4.28571H22.8571C23.236 4.28571 23.5994 4.43622 23.8673 4.70413C24.1352 4.97204 24.2857 5.33541 24.2857 5.71429C24.2857 6.09317 24.1352 6.45653 23.8673 6.72444C23.5994 6.99235 23.236 7.14286 22.8571 7.14286H17.1429C16.764 7.14286 16.4006 6.99235 16.1327 6.72444C15.8648 6.45653 15.7143 6.09317 15.7143 5.71429C15.7143 5.33541 15.8648 4.97204 16.1327 4.70413C16.4006 4.43622 16.764 4.28571 17.1429 4.28571V4.28571ZM37.1429 25.7143C37.1429 26.0932 36.9924 26.4565 36.7244 26.7244C36.4565 26.9923 36.0932 27.1429 35.7143 27.1429H4.28571C3.90683 27.1429 3.54347 26.9923 3.27556 26.7244C3.00765 26.4565 2.85714 26.0932 2.85714 25.7143V24.2857H37.1429V25.7143Z" fill="#6DB0C4"/>
</svg>
