<svg width="41" height="37" viewBox="0 0 41 37" fill="none" xmlns="http://www.w3.org/2000/svg">
<path d="M41 32.3299C41 33.5546 40.515 34.7291 39.6516 35.5951C38.7882 36.4611 37.6172 36.9476 36.3962 36.9476C35.1752 36.9476 34.0042 36.4611 33.1408 35.5951C32.2774 34.7291 31.7924 33.5546 31.7924 32.3299C31.7924 28.5368 35.311 24.9581 35.459 24.7932C35.7104 24.5493 36.0465 24.413 36.3962 24.413C36.7459 24.413 37.082 24.5493 37.3334 24.7932C37.4814 24.9581 41 28.5368 41 32.3299ZM20.6939 19.2189C20.8779 19.0351 21.0238 18.8166 21.1234 18.5761C21.223 18.3355 21.2743 18.0776 21.2743 17.8171C21.2743 17.5567 21.223 17.2988 21.1234 17.0582C21.0238 16.8177 20.8779 16.5992 20.6939 16.4153C20.3216 16.0467 19.8195 15.84 19.2963 15.84C18.7732 15.84 18.2711 16.0467 17.8988 16.4153C17.5281 16.7871 17.3199 17.2914 17.3199 17.8171C17.3199 18.3429 17.5281 18.8472 17.8988 19.2189C18.2694 19.5907 18.7721 19.7996 19.2963 19.7996C19.8205 19.7996 20.3233 19.5907 20.6939 19.2189ZM36.8895 19.054C36.8853 18.701 36.7437 18.3637 36.4948 18.114L18.8195 0.385298C18.5729 0.138564 18.2388 0 17.8905 0C17.5422 0 17.2081 0.138564 16.9616 0.385298L10.3682 6.99851L17.1095 13.7602C18.0822 13.2322 19.2119 13.0731 20.292 13.312C21.372 13.5509 22.3302 14.1718 22.9913 15.0611C23.6524 15.9504 23.9723 17.0487 23.8923 18.1552C23.8124 19.2616 23.338 20.3022 22.556 21.0866C21.7739 21.871 20.7365 22.3468 19.6334 22.427C18.5303 22.5072 17.4352 22.1864 16.5486 21.5233C15.662 20.8602 15.0429 19.8991 14.8048 18.8158C14.5666 17.7325 14.7252 16.5994 15.2516 15.6237L8.51029 8.86209L1.16064 16.2504C0.792757 16.6181 0.500861 17.0551 0.301693 17.5362C0.102524 18.0173 0 18.5331 0 19.054C0 19.575 0.102524 20.0908 0.301693 20.5719C0.500861 21.053 0.792757 21.4899 1.16064 21.8576L15.1036 35.8427C15.8462 36.5839 16.8511 37 17.8988 37C18.9464 37 19.9514 36.5839 20.6939 35.8427L36.4948 19.9776C36.7427 19.734 36.8845 19.402 36.8895 19.054ZM6.0604 2.67766C5.81019 2.45026 5.48237 2.32808 5.14482 2.33641C4.80727 2.34475 4.48584 2.48296 4.24709 2.72244C4.00833 2.96192 3.87053 3.28431 3.86222 3.62288C3.85391 3.96145 3.97572 4.29026 4.20244 4.54123L8.51029 8.86209L10.3682 6.99851L6.0604 2.67766Z" fill="#B49DF0"/>
</svg>
